<?xml version="1.0" encoding="UTF-8" standalone="no"?>
<svg
   xmlns:dc="http://purl.org/dc/elements/1.1/"
   xmlns:cc="http://creativecommons.org/ns#"
   xmlns:rdf="http://www.w3.org/1999/02/22-rdf-syntax-ns#"
   xmlns:svg="http://www.w3.org/2000/svg"
   xmlns="http://www.w3.org/2000/svg"
   xmlns:sodipodi="http://sodipodi.sourceforge.net/DTD/sodipodi-0.dtd"
   xmlns:inkscape="http://www.inkscape.org/namespaces/inkscape"
   width="210mm"
   height="297mm"
   viewBox="0 0 210 297"
   version="1.1"
   id="svg8"
   inkscape:version="1.0.1 (3bc2e813f5, 2020-09-07)"
   sodipodi:docname="spedread.svg">
  <defs
     id="defs2" />
  <sodipodi:namedview
     id="base"
     pagecolor="#ffffff"
     bordercolor="#666666"
     borderopacity="1.0"
     inkscape:pageopacity="0.0"
     inkscape:pageshadow="2"
     inkscape:zoom="0.35"
     inkscape:cx="169.99058"
     inkscape:cy="69.259786"
     inkscape:document-units="mm"
     inkscape:current-layer="layer1"
     inkscape:document-rotation="0"
     showgrid="false"
     inkscape:window-width="1343"
     inkscape:window-height="908"
     inkscape:window-x="-4"
     inkscape:window-y="0"
     inkscape:window-maximized="0" />
  <metadata
     id="metadata5">
    <rdf:RDF>
      <cc:Work
         rdf:about="">
        <dc:format>image/svg+xml</dc:format>
        <dc:type
           rdf:resource="http://purl.org/dc/dcmitype/StillImage" />
        <dc:title></dc:title>
      </cc:Work>
    </rdf:RDF>
  </metadata>
  <g
     inkscape:label="Layer 1"
     inkscape:groupmode="layer"
     id="layer1">
    <path
       style="fill:#ffffff;stroke:none;stroke-width:0.727636px;stroke-linecap:butt;stroke-linejoin:miter;stroke-opacity:1"
       d="M 4.6638834,225.29666 202.63901,245.55835 204.79612,116.88481 4.9726806,97.703309 Z"
       id="path914"
       sodipodi:nodetypes="ccccc" />
    <g
       id="g855"
       transform="matrix(2.7501271,0,0,2.7501271,-106.07284,-203.21488)">
      <rect
         style="fill:#46a1b0;stroke-width:0"
         id="rect849"
         width="66.519264"
         height="8.4330111"
         x="43.398426"
         y="139.63486"
         transform="matrix(0.99489673,0.10089842,0,1,0,0)" />
      <g
         aria-label="Sr"
         id="text853"
         style="font-style:normal;font-variant:normal;font-weight:normal;font-stretch:normal;font-size:50.8px;line-height:1.25;font-family:Aver;-inkscape-font-specification:Aver;fill:#000000;fill-opacity:1;stroke:none;stroke-width:0.264583">
        <path
           d="m 55.990622,131.47532 q -3.472656,-2.57969 -3.770313,-6.49883 0,-3.62148 2.926953,-6.25078 2.877344,-2.57969 8.284766,-2.57969 5.357812,0 8.73125,3.07578 v 6.54844 h -1.686719 q -0.992187,-4.06797 -2.678906,-5.60586 -1.736328,-1.53789 -4.117578,-1.53789 -3.075781,0 -4.464844,1.53789 -1.438672,1.5875 -1.438672,3.81992 0.148828,2.48047 5.308203,5.2586 4.911328,2.62929 7.590235,4.66328 4.018359,3.175 4.365625,8.23515 0,4.36563 -3.075782,7.14375 -3.175,2.77813 -9.376171,2.77813 -7.242969,0 -10.963672,-4.11758 v -8.73125 h 2.480469 q 0.942578,6.69727 3.026171,8.58242 2.033985,1.88516 5.109766,1.88516 3.671094,0 5.407422,-1.53789 1.637109,-1.43867 1.736328,-4.86172 -0.248047,-4.16719 -5.705078,-7.19336 -5.357813,-2.92695 -7.689453,-4.61367 z"
           style="font-style:normal;font-variant:normal;font-weight:normal;font-stretch:normal;font-size:50.8px;font-family:Aver;-inkscape-font-specification:Aver;stroke-width:0.264583"
           id="path889" />
        <path
           d="m 87.145309,133.06282 q 2.282031,-5.60586 5.804297,-5.60586 3.522265,0 3.770312,3.07578 0,3.02617 -2.678906,3.27422 -2.38125,-0.0992 -3.026172,-2.33164 -0.04961,-0.29766 -0.297656,-0.29766 -1.438672,0 -3.571875,5.06016 v 11.01328 q 0,2.72851 2.976562,2.82773 v 1.63711 h -11.06289 v -1.63711 q 2.926953,-0.0992 2.926953,-2.82773 v -14.78359 q -0.148828,-2.33165 -3.819922,-2.43086 v -1.98438 l 4.564063,-0.0992 q 2.033984,-0.14883 4.415234,-0.44648 z"
           style="font-style:normal;font-variant:normal;font-weight:normal;font-stretch:normal;font-size:50.8px;font-family:Aver;-inkscape-font-specification:Aver;stroke-width:0.264583"
           id="path891" />
      </g>
    </g>
  </g>
</svg>
