<svg width="24" height="24" xmlns="http://www.w3.org/2000/svg" shape-rendering="crispEdges">
  <path fill="#BEBEBE" d="M3 2h1v1H3zm1 0h1v1H4zm1 0h1v1H5zm1 0h1v1H6zm1 0h1v1H7zm1 0h1v1H8zm1 0h1v1H9zm1 0h1v1h-1zm1 0h1v1h-1zm1 0h1v1h-1zm1 0h1v1h-1zm1 0h1v1h-1zm1 0h1v1h-1zm1 0h1v1h-1zm1 0h1v1h-1zm1 0h1v1h-1zm1 0h1v1h-1zm1 0h1v1h-1zM3 3h1v1H3zm1 0h1v1H4zm1 0h1v1H5zm1 0h1v1H6zm1 0h1v1H7zm1 0h1v1H8zm1 0h1v1H9zm1 0h1v1h-1zm1 0h1v1h-1zm1 0h1v1h-1zm1 0h1v1h-1zm1 0h1v1h-1zm1 0h1v1h-1zm1 0h1v1h-1zm1 0h1v1h-1zm1 0h1v1h-1zm1 0h1v1h-1zm1 0h1v1h-1zM3 4h1v1H3zm1 0h1v1H4zm1 0h1v1H5zm1 0h1v1H6zm1 0h1v1H7zm1 0h1v1H8zm1 0h1v1H9zm1 0h1v1h-1zm1 0h1v1h-1zm1 0h1v1h-1zm1 0h1v1h-1zm1 0h1v1h-1zm1 0h1v1h-1zm1 0h1v1h-1zm1 0h1v1h-1zm1 0h1v1h-1zm1 0h1v1h-1zm1 0h1v1h-1zM3 5h1v1H3zm1 0h1v1H4zm1 0h1v1H5zm13 0h1v1h-1zm1 0h1v1h-1zm1 0h1v1h-1zM3 6h1v1H3zm1 0h1v1H4zm1 0h1v1H5zm13 0h1v1h-1zm1 0h1v1h-1zm1 0h1v1h-1zM3 7h1v1H3zm1 0h1v1H4zm1 0h1v1H5zm13 0h1v1h-1zm1 0h1v1h-1zm1 0h1v1h-1zM3 8h1v1H3zm1 0h1v1H4zm1 0h1v1H5zm4 0h1v1H9zm1 0h1v1h-1zm1 0h1v1h-1zm1 0h1v1h-1zm1 0h1v1h-1zm1 0h1v1h-1zm4 0h1v1h-1zm1 0h1v1h-1zm1 0h1v1h-1zM3 9h1v1H3zm1 0h1v1H4zm1 0h1v1H5zm4 0h1v1H9zm1 0h1v1h-1zm1 0h1v1h-1zm1 0h1v1h-1zm1 0h1v1h-1zm1 0h1v1h-1zm4 0h1v1h-1zm1 0h1v1h-1zm1 0h1v1h-1zM3 10h1v1H3zm1 0h1v1H4zm1 0h1v1H5zm4 0h1v1H9zm1 0h1v1h-1zm1 0h1v1h-1zm1 0h1v1h-1zm1 0h1v1h-1zm1 0h1v1h-1zm4 0h1v1h-1zm1 0h1v1h-1zm1 0h1v1h-1zM3 11h1v1H3zm1 0h1v1H4zm1 0h1v1H5zm13 0h1v1h-1zm1 0h1v1h-1zm1 0h1v1h-1zM3 12h1v1H3zm1 0h1v1H4zm1 0h1v1H5zm13 0h1v1h-1zm1 0h1v1h-1zm1 0h1v1h-1zM3 13h1v1H3zm1 0h1v1H4zm1 0h1v1H5zm4 0h1v1H9zm1 0h1v1h-1zm1 0h1v1h-1zm1 0h1v1h-1zm6 0h1v1h-1zm1 0h1v1h-1zm1 0h1v1h-1zM3 14h1v1H3zm1 0h1v1H4zm1 0h1v1H5zm4 0h1v1H9zm1 0h1v1h-1zm1 0h1v1h-1zm1 0h1v1h-1zm6 0h1v1h-1zm1 0h1v1h-1zm1 0h1v1h-1zM3 15h1v1H3zm1 0h1v1H4zm1 0h1v1H5zm4 0h1v1H9zm1 0h1v1h-1zm1 0h1v1h-1zm1 0h1v1h-1zm6 0h1v1h-1zm1 0h1v1h-1zm1 0h1v1h-1zM3 16h1v1H3zm1 0h1v1H4zm1 0h1v1H5zm13 0h1v1h-1zm1 0h1v1h-1zm1 0h1v1h-1zM3 17h1v1H3zm1 0h1v1H4zm1 0h1v1H5zm13 0h1v1h-1zm1 0h1v1h-1zm1 0h1v1h-1zM3 18h1v1H3zm1 0h1v1H4zm1 0h1v1H5zm13 0h1v1h-1zm1 0h1v1h-1zm1 0h1v1h-1zM3 19h1v1H3zm1 0h1v1H4zm1 0h1v1H5zm1 0h1v1H6zm1 0h1v1H7zm1 0h1v1H8zm1 0h1v1H9zm1 0h1v1h-1zm1 0h1v1h-1zm1 0h1v1h-1zm1 0h1v1h-1zm1 0h1v1h-1zm1 0h1v1h-1zm1 0h1v1h-1zm1 0h1v1h-1zm1 0h1v1h-1zm1 0h1v1h-1zm1 0h1v1h-1zM3 20h1v1H3zm1 0h1v1H4zm1 0h1v1H5zm1 0h1v1H6zm1 0h1v1H7zm1 0h1v1H8zm1 0h1v1H9zm1 0h1v1h-1zm1 0h1v1h-1zm1 0h1v1h-1zm1 0h1v1h-1zm1 0h1v1h-1zm1 0h1v1h-1zm1 0h1v1h-1zm1 0h1v1h-1zm1 0h1v1h-1zm1 0h1v1h-1zm1 0h1v1h-1zM3 21h1v1H3zm1 0h1v1H4zm1 0h1v1H5zm1 0h1v1H6zm1 0h1v1H7zm1 0h1v1H8zm1 0h1v1H9zm1 0h1v1h-1zm1 0h1v1h-1zm1 0h1v1h-1zm1 0h1v1h-1zm1 0h1v1h-1zm1 0h1v1h-1zm1 0h1v1h-1zm1 0h1v1h-1zm1 0h1v1h-1zm1 0h1v1h-1zm1 0h1v1h-1z"/>
</svg>
